<svg xmlns="http://www.w3.org/2000/svg" xmlns:xlink="http://www.w3.org/1999/xlink" x="0px" y="0px" viewBox="0 0 139.135 124.483">
	<g>
		<path fill="#512054" d="M46.629,72.109c0,0-40.088,48.258-44.718,20.291C-2.715,64.428,46.629,72.109,46.629,72.109z"/>
		<path fill="#ED1E79" d="M51.867,88.387c0,0-18.947,25.072-12.901,31.414C45.012,126.143,58.515,108.588,51.867,88.387z"/>
		<path fill="#B3B3B3" d="M69.937,65.342c0,0,76.517-36.695,68.626,2.949C130.665,107.938,69.937,65.342,69.937,65.342z"/>
		<path fill="#774550" d="M66.288,77.07c0,0,53.336,35.453,31.223,45.6C75.396,132.816,60.405,98.01,66.288,77.07z"/>
		<path fill="#B3B3B3" d="M69.001,48.531c2.12,8.228,39.976-33.033,33.249-42.789C95.525-4.014,67.245,41.697,69.001,48.531z"/>
		<path fill="#B76C80" d="M56.743,50.016c0,0,12.999-45.035,1.997-49.577C47.737-4.1,38.322,27.581,56.743,50.016z"/>
		<path fill="#B3B3B3" d="M47.308,57.033c0,0-18.25-51.823-39.851-45.685C-14.146,17.489,14.892,53.911,47.308,57.033z"/>
	</g>
</svg>