<svg xmlns="http://www.w3.org/2000/svg" xmlns:xlink="http://www.w3.org/1999/xlink" x="0px" y="0px" viewBox="0 0 529.889 124.483" width="529.889px" height="124.483px">
<g>
	<path fill="#512054" d="M53.625,72.109c0,0-46.102,48.258-51.426,20.291C-3.122,64.428,53.625,72.109,53.625,72.109z"/>
	<path fill="#ED1E79" d="M59.647,88.386c0,0-21.789,25.072-14.837,31.415C51.764,126.142,67.292,108.587,59.647,88.386z"/>
	<path fill="#B3B3B3" d="M80.429,65.341c0,0,87.996-36.695,78.921,2.949C150.267,107.938,80.429,65.341,80.429,65.341z"/>
	<path fill="#774550" d="M76.231,77.071c0,0,61.338,35.452,35.907,45.599C86.706,132.816,69.467,98.009,76.231,77.071z"/>
	<path fill="#B3B3B3" d="M79.353,48.531c2.438,8.228,45.973-33.033,38.236-42.789C109.855-4.014,77.333,41.697,79.353,48.531z"/>
	<path fill="#B76C80" d="M65.255,50.016c0,0,14.949-45.035,2.296-49.577C54.898-4.1,44.071,27.581,65.255,50.016z"/>
	<path fill="#B3B3B3" d="M54.404,57.033c0,0-20.988-51.823-45.829-45.685C-16.269,17.489,17.126,53.911,54.404,57.033z"/>
</g>
<g>
	<g>
		<path d="M203.098,122.784h-17.055c-1.768,0-3.419-0.344-4.955-1.036c-1.537-0.692-2.881-1.613-4.033-2.765
			c-1.152-1.153-2.074-2.496-2.765-4.034c-0.692-1.537-1.038-3.187-1.038-4.955V92.94c0-1.845,0.326-3.553,0.979-5.128
			c0.653-1.573,1.556-2.938,2.708-4.09c1.152-1.152,2.495-2.055,4.033-2.709c1.536-0.651,3.226-0.979,5.069-0.979h17.055
			c3.532,0,6.527,1.268,8.988,3.804c2.534,2.459,3.802,5.492,3.802,9.103c-1.768-1.306-3.784-2.342-6.049-3.111
			c-2.267-0.768-4.514-1.152-6.74-1.152h-17.055c-1.229,0-2.246,0.402-3.053,1.211c-0.806,0.806-1.209,1.825-1.209,3.053v17.054
			c0,1.152,0.421,2.151,1.267,2.995c0.844,0.847,1.843,1.269,2.996,1.269h17.055c4.762,0,9.024-1.421,12.79-4.264
			c0,1.769-0.346,3.418-1.037,4.955c-0.691,1.538-1.613,2.881-2.765,4.034c-1.153,1.151-2.498,2.072-4.034,2.765
			C206.514,122.44,204.864,122.784,203.098,122.784z"/>
		<path d="M264.284,109.994c0,1.769-0.346,3.418-1.037,4.955c-0.691,1.538-1.613,2.881-2.766,4.034
			c-1.151,1.151-2.496,2.072-4.032,2.765c-1.538,0.692-3.189,1.036-4.954,1.036h-17.056c-3.687,0-6.74-1.209-9.159-3.629
			c-2.421-2.421-3.631-5.474-3.631-9.161V92.94c0-3.457,1.228-6.491,3.688-9.103c2.38-2.536,5.416-3.804,9.103-3.804h17.056
			c3.531,0,6.527,1.268,8.986,3.804c2.536,2.459,3.803,5.492,3.803,9.103V109.994z M254.49,89.943
			c-0.847-0.844-1.844-1.267-2.995-1.267h-17.056c-1.229,0-2.246,0.402-3.053,1.211c-0.808,0.806-1.21,1.825-1.21,3.053v17.054
			c0,1.229,0.402,2.247,1.21,3.055c0.807,0.805,1.824,1.209,3.053,1.209h17.056c1.151,0,2.148-0.422,2.995-1.269
			c0.844-0.844,1.267-1.843,1.267-2.995V92.94C255.757,91.788,255.334,90.79,254.49,89.943z"/>
	</g>
	<g>
		<path fill="#B3B3B3" d="M468.702,122.784h-17.055c-1.768,0-3.419-0.344-4.954-1.036c-1.538-0.692-2.881-1.613-4.033-2.765
			c-1.152-1.153-2.074-2.496-2.765-4.034c-0.692-1.537-1.037-3.187-1.037-4.955V92.94c0-1.845,0.325-3.553,0.979-5.128
			c0.652-1.573,1.556-2.938,2.708-4.09c1.152-1.152,2.495-2.055,4.033-2.709c1.536-0.651,3.227-0.979,5.069-0.979h17.055
			c3.532,0,6.528,1.268,8.988,3.804c2.535,2.459,3.802,5.492,3.802,9.103c-1.768-1.306-3.784-2.342-6.049-3.111
			c-2.267-0.768-4.514-1.152-6.741-1.152h-17.055c-1.229,0-2.246,0.402-3.053,1.211c-0.807,0.806-1.21,1.825-1.21,3.053v17.054
			c0,1.152,0.421,2.151,1.268,2.995c0.844,0.847,1.843,1.269,2.995,1.269h17.055c4.763,0,9.025-1.421,12.79-4.264
			c0,1.769-0.345,3.418-1.037,4.955c-0.69,1.538-1.612,2.881-2.765,4.034c-1.152,1.151-2.497,2.072-4.033,2.765
			C472.119,122.44,470.469,122.784,468.702,122.784z"/>
		<path fill="#B3B3B3" d="M529.889,109.994c0,1.769-0.345,3.418-1.037,4.955c-0.69,1.538-1.612,2.881-2.765,4.034
			c-1.152,1.151-2.497,2.072-4.033,2.765c-1.538,0.692-3.189,1.036-4.955,1.036h-17.055c-3.686,0-6.74-1.209-9.159-3.629
			c-2.421-2.421-3.631-5.474-3.631-9.161V92.94c0-3.457,1.228-6.491,3.688-9.103c2.38-2.536,5.417-3.804,9.103-3.804h17.055
			c3.532,0,6.528,1.268,8.988,3.804c2.535,2.459,3.802,5.492,3.802,9.103V109.994z M520.095,89.943
			c-0.847-0.844-1.843-1.267-2.996-1.267h-17.055c-1.229,0-2.246,0.402-3.053,1.211c-0.807,0.806-1.209,1.825-1.209,3.053v17.054
			c0,1.229,0.402,2.247,1.209,3.055c0.807,0.805,1.824,1.209,3.053,1.209h17.055c1.153,0,2.149-0.422,2.996-1.269
			c0.844-0.844,1.268-1.843,1.268-2.995V92.94C521.362,91.788,520.938,90.79,520.095,89.943z"/>
	</g>
	<g>
		<path fill="#512054" d="M308.187,109.994c0,3.533-1.268,6.567-3.802,9.103c-2.459,2.46-5.493,3.688-9.103,3.688
			c2.918-3.841,4.378-8.104,4.378-12.79V75.77c0-1.767,0.346-3.417,1.037-4.954c0.691-1.536,1.612-2.881,2.765-4.034
			c1.153-1.151,2.496-2.074,4.033-2.766c1.537-0.69,3.188-1.037,4.955-1.037c-1.307,1.77-2.344,3.785-3.111,6.05
			c-0.768,2.267-1.152,4.515-1.152,6.741V109.994z"/>
		<path fill="#512054" d="M356.583,109.994c0,1.768-0.346,3.418-1.037,4.955c-0.691,1.536-1.613,2.881-2.766,4.032
			c-1.152,1.153-2.497,2.074-4.033,2.766c-1.537,0.691-3.188,1.037-4.955,1.037h-17.053c-3.688,0-6.742-1.21-9.162-3.63
			s-3.629-5.474-3.629-9.16c0-3.688,1.209-6.742,3.629-9.161c2.42-2.421,5.475-3.63,9.162-3.63h17.053
			c1.152,0,2.15-0.421,2.996-1.267c0.845-0.846,1.268-1.845,1.268-2.997c0-1.153-0.423-2.149-1.268-2.996
			c-0.846-0.844-1.844-1.267-2.996-1.267h-17.053c-4.765,0-9.028,1.422-12.791,4.263c0-3.457,1.228-6.491,3.688-9.103
			c2.38-2.535,5.416-3.803,9.104-3.803h17.053c3.533,0,6.529,1.268,8.988,3.803c2.535,2.458,3.803,5.493,3.803,9.103V109.994z
			 M346.788,106.997c-0.846-0.844-1.844-1.267-2.996-1.267h-17.053c-1.23,0-2.248,0.402-3.055,1.21
			c-0.807,0.807-1.209,1.825-1.209,3.054c0,1.229,0.402,2.246,1.209,3.053s1.824,1.21,3.055,1.21h17.053
			c1.152,0,2.15-0.421,2.996-1.268c0.845-0.844,1.268-1.843,1.268-2.995S347.633,107.843,346.788,106.997z"/>
		<path fill="#512054" d="M404.979,109.994c0,1.768-0.345,3.418-1.038,4.955c-0.69,1.536-1.611,2.881-2.764,4.032
			c-1.152,1.153-2.498,2.074-4.033,2.766c-1.539,0.691-3.189,1.037-4.955,1.037h-17.054c-3.688,0-6.741-1.21-9.161-3.63
			s-3.63-5.474-3.63-9.16V75.77c0-1.767,0.347-3.417,1.037-4.954c0.69-1.536,1.614-2.881,2.766-4.034
			c1.153-1.151,2.496-2.074,4.033-2.766c1.536-0.69,3.187-1.037,4.955-1.037c-2.844,3.765-4.265,8.028-4.265,12.791
			c0,1.23,0.404,2.247,1.212,3.054c0.806,0.807,1.822,1.21,3.053,1.21h17.054c3.533,0,6.529,1.268,8.988,3.803
			c2.535,2.458,3.802,5.493,3.802,9.103V109.994z M395.185,89.943c-0.848-0.844-1.844-1.267-2.996-1.267h-17.054
			c-1.23,0-2.247,0.402-3.053,1.21c-0.808,0.807-1.212,1.825-1.212,3.053v17.055c0,1.229,0.404,2.246,1.212,3.053
			c0.806,0.807,1.822,1.21,3.053,1.21h17.054c1.152,0,2.148-0.421,2.996-1.268c0.844-0.844,1.267-1.843,1.267-2.995V92.939
			C396.451,91.786,396.028,90.79,395.185,89.943z"/>
	</g>
	<path d="M289.003,91.575c0,3.456-2.801,6.257-6.257,6.257h-0.486c-3.456,0-6.257-2.801-6.257-6.257v-0.486
		c0-3.456,2.801-6.257,6.257-6.257h0.486c3.456,0,6.257,2.801,6.257,6.257V91.575z"/>
	<path d="M289.003,109.575c0,3.456-2.801,6.257-6.257,6.257h-0.486c-3.456,0-6.257-2.801-6.257-6.257v-0.486
		c0-3.456,2.801-6.257,6.257-6.257h0.486c3.456,0,6.257,2.801,6.257,6.257V109.575z"/>
	<path fill="#B3B3B3" d="M428.003,91.575c0,3.456-2.801,6.257-6.257,6.257h-0.486c-3.456,0-6.257-2.801-6.257-6.257v-0.486
		c0-3.456,2.801-6.257,6.257-6.257h0.486c3.456,0,6.257,2.801,6.257,6.257V91.575z"/>
	<path fill="#B3B3B3" d="M428.003,109.575c0,3.456-2.801,6.257-6.257,6.257h-0.486c-3.456,0-6.257-2.801-6.257-6.257v-0.486
		c0-3.456,2.801-6.257,6.257-6.257h0.486c3.456,0,6.257,2.801,6.257,6.257V109.575z"/>
</g>
</svg>
